<svg width="18" height="18" viewBox="0 0 18 18" fill="none" xmlns="http://www.w3.org/2000/svg">
<path d="M7.69892 3.23805C8.01688 1.92073 9.87954 1.92073 10.1975 3.23805C10.4029 4.08902 11.3722 4.49286 12.1157 4.03721C13.2667 3.33186 14.5838 4.65661 13.8825 5.81423C13.4295 6.56203 13.831 7.53698 14.677 7.74357C15.9867 8.06338 15.9867 9.93685 14.677 10.2567C13.831 10.4632 13.4295 11.4382 13.8825 12.186C14.5838 13.3436 13.2667 14.6684 12.1157 13.963C11.3722 13.5074 10.4029 13.9112 10.1975 14.7622C9.87954 16.0795 8.01688 16.0795 7.69892 14.7622C7.49352 13.9112 6.5242 13.5074 5.7807 13.963C4.62976 14.6684 3.31266 13.3436 4.01394 12.186C4.46696 11.4382 4.06545 10.4632 3.21939 10.2567C1.90967 9.93685 1.90967 8.06338 3.21939 7.74357C4.06545 7.53698 4.46696 6.56203 4.01394 5.81423C3.31266 4.65661 4.62976 3.33186 5.7807 4.03721C6.5242 4.49286 7.49352 4.08902 7.69892 3.23805Z" stroke="#3F3F46" stroke-width="1.2" stroke-linecap="round" stroke-linejoin="round"/>
<path d="M11.1852 9.00011C11.1852 10.2428 10.1837 11.2501 8.94821 11.2501C7.71273 11.2501 6.71117 10.2428 6.71117 9.00011C6.71117 7.75746 7.71273 6.75009 8.94821 6.75009C10.1837 6.75009 11.1852 7.75746 11.1852 9.00011Z" stroke="#3F3F46" stroke-width="1.2" stroke-linecap="round" stroke-linejoin="round"/>
</svg>
