<svg width="140" height="169" viewBox="0 0 140 169" fill="none" xmlns="http://www.w3.org/2000/svg">
<path d="M8.4947 83.8598C7.51834 86.4734 6.85426 111.708 9.79124 125.741C7.81481 135.859 0 168.84 0 168.84H70.8234L78.0018 140.118C78.0018 140.118 121.705 101.91 125.946 95.0616C130.187 88.2132 140.141 48.2262 139.998 44.4738C139.884 41.8642 92.3586 1.71504 91.0542 0.0820327C89.7497 -1.55098 66.7994 21.4337 104.976 47.8861C104.648 51.1482 104.668 65.5567 104.668 65.5567C104.668 65.5567 78.1125 74.6865 75.4166 76.6556C72.7208 78.6247 67.5623 92.4994 66.6294 95.6112C63.0205 94.9074 8.4947 83.8598 8.4947 83.8598Z" fill="#DE8E68"/>
</svg>
