<svg width="22" height="22" viewBox="0 0 22 22" fill="none" xmlns="http://www.w3.org/2000/svg">
<path d="M2.17745e-07 3.3L7.7 0L14.3 3.3L21.2333 0.3289C21.317 0.293022 21.4083 0.278486 21.499 0.286597C21.5897 0.294707 21.677 0.325211 21.753 0.375369C21.829 0.425528 21.8913 0.493773 21.9344 0.573978C21.9776 0.654183 22.0001 0.743839 22 0.8349V18.7L14.3 22L7.7 18.7L0.7667 21.6711C0.683005 21.707 0.591711 21.7215 0.501012 21.7134C0.410313 21.7053 0.323047 21.6748 0.247046 21.6246C0.171045 21.5745 0.108686 21.5062 0.0655677 21.426C0.022449 21.3458 -8.08019e-05 21.2562 2.17745e-07 21.1651V3.3ZM15.4 19.1345L19.8 17.2491V3.3363L15.4 5.2217V19.1345ZM13.2 18.9904V5.2096L8.8 3.0096V16.7904L13.2 18.9904ZM6.6 16.7783V2.8655L2.2 4.7509V18.6637L6.6 16.7783Z" fill="#3F3F46"/>
</svg>
