<svg width="20" height="20" viewBox="0 0 20 20" fill="none" xmlns="http://www.w3.org/2000/svg">
<path d="M8.25484 1.99728C8.699 0.167701 11.301 0.167701 11.7452 1.99728C12.0321 3.17916 13.3862 3.74004 14.4248 3.10721C16.0325 2.12757 17.8724 3.96746 16.8928 5.57524C16.26 6.61384 16.8208 7.96791 18.0027 8.25484C19.8323 8.699 19.8323 11.301 18.0027 11.7452C16.8208 12.0321 16.26 13.3862 16.8928 14.4248C17.8724 16.0325 16.0325 17.8724 14.4248 16.8928C13.3862 16.26 12.0321 16.8208 11.7452 18.0027C11.301 19.8323 8.699 19.8323 8.25484 18.0027C7.96791 16.8208 6.61384 16.26 5.57524 16.8928C3.96746 17.8724 2.12757 16.0325 3.10721 14.4248C3.74004 13.3862 3.17916 12.0321 1.99728 11.7452C0.167701 11.301 0.167701 8.699 1.99728 8.25484C3.17916 7.96791 3.74004 6.61384 3.1072 5.57524C2.12757 3.96746 3.96746 2.12757 5.57524 3.1072C6.61384 3.74004 7.96791 3.17916 8.25484 1.99728Z" stroke="#3F3F46" stroke-width="1.2" stroke-linecap="round" stroke-linejoin="round"/>
<path d="M13.125 10C13.125 11.7259 11.7259 13.125 10 13.125C8.27413 13.125 6.87503 11.7259 6.87503 10C6.87503 8.27413 8.27413 6.87503 10 6.87503C11.7259 6.87503 13.125 8.27413 13.125 10Z" stroke="#3F3F46" stroke-width="1.2" stroke-linecap="round" stroke-linejoin="round"/>
</svg>
