<svg width="271" height="271" viewBox="0 0 271 271" fill="none" xmlns="http://www.w3.org/2000/svg">
<path d="M226.99 11.653H29.7829V206.041H226.99V11.653Z" fill="#F3F3F3"/>
<path d="M226.99 11.653H29.7829V26.4496H226.99V11.653Z" fill="#E1E1E1"/>
<path d="M40.1893 21.5716C41.4765 21.5716 42.5199 20.5282 42.5199 19.241C42.5199 17.9538 41.4765 16.9104 40.1893 16.9104C38.9022 16.9104 37.8587 17.9538 37.8587 19.241C37.8587 20.5282 38.9022 21.5716 40.1893 21.5716Z" fill="#FD8369"/>
<path d="M47.696 21.5716C48.9832 21.5716 50.0266 20.5282 50.0266 19.241C50.0266 17.9538 48.9832 16.9104 47.696 16.9104C46.4089 16.9104 45.3654 17.9538 45.3654 19.241C45.3654 20.5282 46.4089 21.5716 47.696 21.5716Z" fill="#FD8369"/>
<path d="M55.2027 21.5716C56.4898 21.5716 57.5333 20.5282 57.5333 19.241C57.5333 17.9538 56.4898 16.9104 55.2027 16.9104C53.9155 16.9104 52.8721 17.9538 52.8721 19.241C52.8721 20.5282 53.9155 21.5716 55.2027 21.5716Z" fill="#FD8369"/>
<path d="M118.264 37.2354H39.4305V79.945H118.264V37.2354Z" fill="white"/>
<path d="M118.264 90.0804H39.4305V132.79H118.264V90.0804Z" fill="white"/>
<path d="M216.285 90.0804H137.451V182.193H216.285V90.0804Z" fill="white"/>
<path d="M240.187 40.3248H131.95V44.444H240.187V40.3248Z" fill="#E1E1E1"/>
<path d="M240.187 51.9507H131.95V56.0699H240.187V51.9507Z" fill="#E1E1E1"/>
<path d="M240.187 63.5766H131.95V67.6958H240.187V63.5766Z" fill="#E1E1E1"/>
<path d="M240.187 75.2025H131.95V79.3217H240.187V75.2025Z" fill="#E1E1E1"/>
<path d="M191.109 204.93H186.963V211.217H191.109V204.93Z" fill="#DE8E68"/>
<path d="M239.97 231.488H235.824V237.775H239.97V231.488Z" fill="#DE8E68"/>
<path d="M217.396 146.747C212.383 146.747 189.998 168.996 188.047 172.735C186.096 176.475 186.665 205.77 186.665 205.77L191.489 206.692L199.32 179.402C202.735 178.996 217.098 175.906 224.523 169.917C231.949 163.901 223.819 150.486 223.819 150.486L217.396 146.747Z" fill="#3567FF"/>
<path d="M209.022 116.53C206.556 118.725 201.624 124.226 201.217 124.931C199.971 124.335 186.99 117.506 186.014 117.072C185.039 116.638 182.979 113.197 182.275 113.197C181.868 113.197 181.489 113.983 181.489 114.525C181.489 115.446 181.922 116.151 182.193 116.449C181.272 116.313 173.142 115.69 173.142 116.232C173.142 117.641 182.247 119.511 182.952 119.89C183.657 120.27 198.48 133.982 203.629 133.982C205.635 133.982 214.496 127.966 214.496 127.316C215.337 126.747 216.637 125.907 216.637 125.907V121.137L213.548 118.888C213.548 118.861 209.51 116.096 209.022 116.53Z" fill="#DE8E68"/>
<path d="M208.697 114.958C209.239 110.568 219.347 100.595 223.982 105.04C228.019 108.915 220.702 122.763 218.833 123.305C216.719 123.522 208.562 117.939 208.697 114.958Z" fill="#3456FF"/>
<path d="M239.537 105.825C244.686 103.657 251.894 115.581 251.081 119.917C251.081 121.814 240.512 125.879 238.886 124.795C237.26 123.711 234.388 107.993 239.537 105.825Z" fill="#3456FF"/>
<path d="M218.778 148.671L235.797 231.461H240.16L241.705 157.614C241.705 156.34 241.596 148.318 241.596 147.289C236.664 148.725 226.149 149.863 218.778 148.671Z" fill="#3567FF"/>
<path d="M235.824 237.775H239.971V242.274H228.534L235.824 237.775Z" fill="black"/>
<path d="M186.963 211.217H191.109V215.716H179.673L186.963 211.217Z" fill="black"/>
<path d="M211.407 215.716H162.058V244.605H211.407V215.716Z" fill="#070928"/>
<path d="M38.1297 246.176L19.0784 245.96L12.4118 221.488H44.3627L38.1297 246.176Z" fill="#070928"/>
<path d="M228.263 99.457C241 99.457 245.445 110.053 245.445 113.495C245.445 116.937 241.461 137.939 241.624 147.289C241.651 148.833 218.778 150.215 215.662 147.966C214.198 146.909 211.055 99.457 228.263 99.457Z" fill="#3456FF"/>
<path d="M251.082 119.917C254.686 125.446 254.469 138.183 254.469 140.107C254.469 142.031 241.027 159.321 239.862 159.321C239.157 158.616 237.206 156.475 237.206 155.825C237.83 154.687 245.824 137.207 247.26 135.961C246.61 135.175 240.892 126.205 240.648 124.714C245.662 123.874 250.512 121.76 251.082 119.917Z" fill="#DE8E68"/>
<path d="M251.081 119.917C251.894 115.581 245.309 103.007 239.537 105.825C234.523 108.292 237.26 123.711 238.886 124.795C240.838 125.636 250.323 122.79 251.081 119.917Z" fill="#3456FF"/>
<path d="M225.011 96.8554C224.74 97.6955 224.605 100.297 224.903 101.462C224.93 101.517 230.323 101.923 230.919 100.975C230.946 100.189 232.247 93.1969 234.008 91.0289C234.171 90.785 233.819 90.1075 233.819 90.1075L227.559 92.7091L225.011 96.8554Z" fill="#D38466"/>
<path d="M233.114 90.7037C233.521 91.2457 234.036 91.4896 234.496 91.4896C235.526 91.4896 237.911 90.5411 237.911 87.1536C237.911 84.7146 235.526 83.468 235.526 82.3027C235.526 81.1916 235.824 81.1645 235.824 80.2431C235.824 79.7824 235.363 78.2648 233.927 78.2648C233.114 78.2648 232.816 78.9423 232.003 78.9423C231.109 78.9423 230.296 77.2079 228.941 77.2079C228.019 77.2079 227.152 78.0751 226.177 78.0751C225.065 78.0751 224.307 76.422 222.762 76.422C221.163 76.422 220.594 77.8583 219.971 77.8583C219.185 77.8583 219.049 77.6415 218.263 77.6415C217.776 77.6415 216.285 78.5087 216.285 80.0805C216.285 81.1916 216.746 83.0073 219.049 83.0073C220.404 83.0073 221.163 85.1482 222.355 85.1482C222.816 85.1482 223.223 84.7688 223.331 84.9585C223.792 85.7715 224.74 87.9937 224.74 87.9937L229.049 90.4056L233.114 90.7037Z" fill="#070928"/>
<path d="M232.166 89.5926C232.166 89.972 232.03 90.0533 231.461 90.0533C231.19 90.0533 230.811 89.701 230.811 89.3216C230.811 88.4273 231.461 88.2376 231.461 87.0723C231.461 85.094 226.285 84.0642 224.469 83.0344C223.819 83.6848 223.358 84.5249 223.169 85.4734L222.003 91.4625C221.488 94.0641 223.196 96.5844 225.77 97.0993C228.345 97.6142 230.892 95.9069 231.407 93.3324L231.597 92.3026C231.705 92.3297 231.813 92.3568 231.895 92.3568C232.572 92.3568 233.087 91.7335 233.087 90.9747C233.141 90.2701 232.166 89.0235 232.166 89.5926Z" fill="#DE8E68"/>
<path d="M31.1108 211.895C25.6095 175.066 12.1408 155.744 10.4335 156.475C8.02158 157.532 7.31698 178.21 11.6259 199.564C11.7343 199.564 11.8156 199.537 11.924 199.537C13.1706 199.537 14.1733 200.54 14.1733 201.787C14.1733 202.166 14.092 202.518 13.9294 202.816C14.6611 203.196 15.176 203.955 15.176 204.822C15.176 205.906 14.3901 206.827 13.3603 207.044C14.634 211.976 16.2329 216.854 18.1299 221.38C19.1055 221.38 30.0539 221.38 30.0539 221.38C30.0539 221.38 31.9238 217.261 31.1108 211.895Z" fill="#3567FF"/>
<path d="M62.9533 172.844C59.62 172.844 56.0428 182.437 52.0862 182.437C51.219 182.437 50.6499 181.489 50.6499 180.594C50.6499 179.727 53.387 170.188 53.387 165.554C53.387 165.147 53.3599 164.714 53.3057 164.28C52.8721 164.551 52.3301 164.714 51.7881 164.714C50.1621 164.714 48.8342 163.386 48.8342 161.76C48.8342 160.324 49.8369 159.158 51.1919 158.86C49.8098 157.099 47.7773 155.852 45.0131 155.852C41.5172 155.852 36.585 158.969 36.585 163.792C36.585 165.147 36.9915 168.589 36.9915 171.706C36.9915 189.375 23.1434 192.031 23.1434 211.597C23.1434 215.716 25.4198 220.242 26.0973 221.353C26.0973 221.353 37.6961 221.488 38.8072 221.488C39.9183 221.488 48.9426 206.421 49.9724 204.822C53.9019 198.751 66.9641 192.085 66.9641 177.586C66.9641 175.554 66.2324 172.844 62.9533 172.844Z" fill="#3567FF"/>
</svg>
