<svg width="151" height="28" viewBox="0 0 151 28" fill="none" xmlns="http://www.w3.org/2000/svg">
<path d="M27.9516 14C27.9516 21.4483 21.8139 27.5 14.2258 27.5C6.63768 27.5 0.5 21.4483 0.5 14C0.5 6.55167 6.63768 0.5 14.2258 0.5C21.8139 0.5 27.9516 6.55167 27.9516 14Z" stroke="#D4D4D8"/>
<path d="M20.5331 10.9831C20.1073 11.1693 19.6579 11.2857 19.1848 11.3556C19.6579 11.0762 20.0364 10.6339 20.2019 10.0985C19.7525 10.3546 19.2558 10.5408 18.7117 10.6572C18.2859 10.2149 17.6709 9.93555 17.0086 9.93555C15.7312 9.93555 14.6904 10.9598 14.6904 12.2169C14.6904 12.4031 14.7141 12.5661 14.7614 12.729C12.8454 12.6359 11.1186 11.728 9.95955 10.3313C9.77032 10.6805 9.65204 11.0529 9.65204 11.472C9.65204 12.2634 10.0542 12.9618 10.6928 13.3808C10.3144 13.3576 9.95955 13.2644 9.62839 13.1015V13.1248C9.62839 14.2422 10.4326 15.1733 11.4971 15.3828C11.3079 15.4294 11.095 15.4527 10.8821 15.4527C10.7402 15.4527 10.5746 15.4294 10.4326 15.4061C10.7402 16.314 11.5917 16.9891 12.6089 16.9891C11.8046 17.5943 10.8111 17.9668 9.72301 17.9668C9.53377 17.9668 9.34454 17.9668 9.17896 17.9435C10.2198 18.5953 11.4261 18.9678 12.7508 18.9678C17.0322 18.9678 19.374 15.476 19.374 12.4497C19.374 12.3566 19.374 12.2402 19.374 12.1471C19.8235 11.8444 20.2256 11.4487 20.5331 10.9831Z" fill="#090914"/>
<ellipse cx="54.8709" cy="14" rx="14.2258" ry="14" fill="#2563EB"/>
<path d="M53.5588 20.3038V14.7503H51.6598V12.5859H53.5588V10.9898C53.5588 9.13752 54.7084 8.12891 56.3874 8.12891C57.1917 8.12891 57.8829 8.18784 58.0843 8.21417V10.1499L56.9199 10.1505C56.0067 10.1505 55.8299 10.5775 55.8299 11.2041V12.5859H58.0077L57.7241 14.7503H55.8299V20.3038H53.5588Z" fill="white"/>
<path d="M109.242 14C109.242 21.4483 103.104 27.5 95.5162 27.5C87.928 27.5 81.7903 21.4483 81.7903 14C81.7903 6.55167 87.928 0.5 95.5162 0.5C103.104 0.5 109.242 6.55167 109.242 14Z" stroke="#D4D4D8"/>
<path d="M95.5169 8.44721C97.3548 8.44721 97.5725 8.45398 98.2985 8.48656C98.735 8.49182 99.1674 8.5707 99.5769 8.71979C99.8738 8.83248 100.143 9.00511 100.368 9.22656C100.593 9.44802 100.769 9.71339 100.883 10.0056C101.035 10.4085 101.115 10.8341 101.12 11.2637C101.153 11.9782 101.16 12.1924 101.16 14.0011C101.16 15.8098 101.154 16.024 101.12 16.7385C101.115 17.1681 101.035 17.5936 100.883 17.9966C100.769 18.2888 100.593 18.5541 100.368 18.7756C100.143 18.997 99.8738 19.1697 99.5769 19.2824C99.1674 19.4315 98.735 19.5103 98.2985 19.5156C97.5728 19.5479 97.3551 19.5549 95.5169 19.5549C93.6787 19.5549 93.4611 19.5482 92.7354 19.5156C92.2988 19.5103 91.8665 19.4315 91.457 19.2824C91.1601 19.1697 90.8904 18.997 90.6654 18.7756C90.4404 18.5541 90.265 18.2888 90.1505 17.9966C89.999 17.5936 89.9188 17.1681 89.9135 16.7385C89.8807 16.024 89.8735 15.8098 89.8735 14.0011C89.8735 12.1924 89.8804 11.9782 89.9135 11.2637C89.9188 10.8341 89.999 10.4085 90.1505 10.0056C90.265 9.71339 90.4404 9.44802 90.6654 9.22656C90.8904 9.00511 91.1601 8.83248 91.457 8.71979C91.8665 8.5707 92.2988 8.49182 92.7354 8.48656C93.4614 8.4543 93.6791 8.44721 95.5169 8.44721ZM95.5169 7.22656C93.6486 7.22656 93.4132 7.2343 92.679 7.26721C92.1077 7.27839 91.5424 7.38485 91.0073 7.58205C90.5482 7.75226 90.1324 8.019 89.7889 8.36366C89.4384 8.70184 89.1671 9.11127 88.994 9.56334C88.7937 10.09 88.6855 10.6463 88.6741 11.2085C88.6414 11.9304 88.6335 12.162 88.6335 14.0008C88.6335 15.8395 88.6414 16.0711 88.6748 16.7937C88.6861 17.3559 88.7943 17.9122 88.9947 18.4388C89.1676 18.8908 89.4386 19.3002 89.7889 19.6385C90.1326 19.9832 90.5487 20.25 91.0079 20.4201C91.5431 20.6173 92.1083 20.7238 92.6796 20.7349C93.4139 20.7672 93.6482 20.7756 95.5176 20.7756C97.3869 20.7756 97.6213 20.7679 98.3555 20.7349C98.9269 20.7238 99.4921 20.6173 100.027 20.4201C100.484 20.2457 100.899 19.9794 101.246 19.6381C101.593 19.2968 101.863 18.8882 102.04 18.4382C102.24 17.9115 102.348 17.3553 102.36 16.793C102.393 16.0711 102.4 15.8395 102.4 14.0008C102.4 12.162 102.393 11.9304 102.359 11.2079C102.348 10.6456 102.24 10.0893 102.039 9.56269C101.866 9.11068 101.595 8.70126 101.245 8.36301C100.901 8.01828 100.485 7.75153 100.026 7.5814C99.4908 7.3842 98.9255 7.27775 98.3542 7.26656C97.6207 7.2343 97.3853 7.22656 95.5169 7.22656Z" fill="#090914"/>
<path d="M95.5183 10.5234C94.8192 10.5234 94.1358 10.7275 93.5545 11.1097C92.9732 11.492 92.5201 12.0353 92.2526 12.6709C91.9851 13.3066 91.9151 14.006 92.0514 14.6808C92.1878 15.3556 92.5245 15.9755 93.0188 16.462C93.5132 16.9485 94.143 17.2798 94.8287 17.414C95.5144 17.5482 96.2252 17.4794 96.8711 17.2161C97.517 16.9528 98.069 16.5069 98.4574 15.9348C98.8458 15.3627 99.0532 14.6902 99.0532 14.0021C99.0532 13.0795 98.6807 12.1947 98.0178 11.5423C97.3549 10.8899 96.4558 10.5234 95.5183 10.5234ZM95.5183 16.2602C95.0645 16.2602 94.6209 16.1278 94.2436 15.8797C93.8663 15.6315 93.5722 15.2789 93.3985 14.8663C93.2248 14.4537 93.1794 13.9996 93.2679 13.5616C93.3565 13.1236 93.575 12.7213 93.8959 12.4055C94.2168 12.0897 94.6256 11.8746 95.0707 11.7875C95.5158 11.7003 95.9771 11.7451 96.3964 11.916C96.8157 12.0869 97.174 12.3763 97.4261 12.7476C97.6783 13.119 97.8128 13.5555 97.8128 14.0021C97.8128 14.601 97.5711 15.1754 97.1408 15.5988C96.7105 16.0223 96.1269 16.2602 95.5183 16.2602Z" fill="#090914"/>
<path d="M99.1921 11.1981C99.6483 11.1981 100.018 10.8341 100.018 10.3852C100.018 9.93621 99.6483 9.57227 99.1921 9.57227C98.7359 9.57227 98.3661 9.93621 98.3661 10.3852C98.3661 10.8341 98.7359 11.1981 99.1921 11.1981Z" fill="#090914"/>
<path d="M149.887 14C149.887 21.4483 143.749 27.5 136.161 27.5C128.573 27.5 122.435 21.4483 122.435 14C122.435 6.55167 128.573 0.5 136.161 0.5C143.749 0.5 149.887 6.55167 149.887 14Z" stroke="#D4D4D8"/>
<path fill-rule="evenodd" clip-rule="evenodd" d="M136.778 7.22656C133.129 7.22656 130.193 10.1155 130.193 13.7065C130.193 16.5684 132.086 18.9984 134.693 19.8624C135.022 19.9164 135.132 19.7274 135.132 19.5384C135.132 19.3764 135.132 18.9714 135.132 18.4314C133.294 18.8364 132.91 17.5674 132.91 17.5674C132.608 16.8114 132.169 16.6224 132.169 16.6224C131.565 16.2174 132.224 16.2174 132.224 16.2174C132.882 16.2714 133.239 16.8924 133.239 16.8924C133.815 17.8914 134.775 17.5944 135.159 17.4324C135.214 17.0004 135.379 16.7304 135.571 16.5684C134.117 16.4064 132.58 15.8394 132.58 13.3555C132.58 12.6535 132.827 12.0595 133.266 11.6275C133.211 11.4655 132.964 10.8175 133.321 9.89952C133.321 9.89952 133.87 9.73752 135.132 10.5745C135.653 10.4395 136.229 10.3585 136.778 10.3585C137.327 10.3585 137.903 10.4395 138.424 10.5745C139.686 9.73752 140.235 9.89952 140.235 9.89952C140.591 10.7905 140.372 11.4385 140.29 11.6275C140.701 12.0865 140.975 12.6535 140.975 13.3555C140.975 15.8394 139.439 16.3794 137.958 16.5414C138.205 16.7304 138.397 17.1354 138.397 17.7294C138.397 18.5934 138.397 19.2954 138.397 19.5114C138.397 19.6734 138.506 19.8894 138.863 19.8354C141.469 18.9984 143.362 16.5684 143.362 13.7065C143.362 10.1155 140.427 7.22656 136.778 7.22656Z" fill="#090914"/>
</svg>
