<svg width="226" height="198" viewBox="0 0 226 198" fill="none" xmlns="http://www.w3.org/2000/svg">
<path d="M29.0423 197.817L0 160.886V0L29.0423 36.9307V197.817Z" fill="#3678FF"/>
<path d="M192.337 168.382L29.0423 198V37.1136L192.337 7.49584V168.382Z" fill="#3456FF"/>
<path d="M226 183.571L192.336 168.382V7.49584L226 22.685V183.571Z" fill="#3678FF"/>
<path d="M143.615 109.962L170.505 136.881" stroke="#F8F8FA" stroke-width="11" stroke-linecap="round" stroke-linejoin="round"/>
<path d="M143.615 136.881L170.505 109.962" stroke="#F8F8FA" stroke-width="11" stroke-linecap="round" stroke-linejoin="round"/>
<path d="M157.567 46.9434C139.999 46.9434 122.241 64.0485 157.567 109.835C192.889 64.0485 175.131 46.9434 157.567 46.9434ZM157.567 79.1463C155.197 79.147 152.88 78.4442 150.909 77.1268C148.938 75.8094 147.402 73.9366 146.494 71.7451C145.587 69.5537 145.349 67.1421 145.811 64.8154C146.273 62.4887 147.414 60.3513 149.089 58.6736C150.765 56.996 152.9 55.8534 155.224 55.3903C157.549 54.9272 159.958 55.1645 162.148 56.0722C164.338 56.9798 166.209 58.517 167.526 60.4894C168.843 62.4618 169.546 64.7807 169.546 67.1529C169.546 68.7277 169.237 70.2872 168.635 71.7423C168.033 73.1974 167.151 74.5195 166.039 75.6333C164.926 76.747 163.605 77.6305 162.152 78.2333C160.698 78.836 159.14 79.1463 157.567 79.1463Z" fill="white"/>
<path d="M48.2211 33.6362C47.7097 34.4626 47.2238 35.3073 46.7599 36.1665" stroke="#F8F8FA" stroke-width="5" stroke-linecap="round" stroke-linejoin="round"/>
<path d="M44.2027 41.4685C39.987 51.5093 38.3285 62.8006 38.3285 72.9766C38.3285 125.107 50.8002 161.636 85.2783 161.636C115.661 161.636 122.062 131.7 134.877 124.596" stroke="#F8F8FA" stroke-width="5" stroke-linecap="round" stroke-linejoin="round" stroke-dasharray="16.09 16.09"/>
<path d="M137.595 123.477C138.537 123.222 139.508 123.092 140.484 123.093" stroke="#F8F8FA" stroke-width="5" stroke-linecap="round" stroke-linejoin="round"/>
</svg>
