<svg width="18" height="18" viewBox="0 0 18 18" fill="none" xmlns="http://www.w3.org/2000/svg">
<path d="M2.25 8.97272L3.75 7.47726M3.75 7.47726L9 2.24316L14.25 7.47726M3.75 7.47726V14.9545C3.75 15.3675 4.08579 15.7023 4.5 15.7023H6.75M14.25 7.47726L15.75 8.97272M14.25 7.47726V14.9545C14.25 15.3675 13.9142 15.7023 13.5 15.7023H11.25M6.75 15.7023C7.16421 15.7023 7.5 15.3675 7.5 14.9545V11.9636C7.5 11.5507 7.83579 11.2159 8.25 11.2159H9.75C10.1642 11.2159 10.5 11.5507 10.5 11.9636V14.9545C10.5 15.3675 10.8358 15.7023 11.25 15.7023M6.75 15.7023H11.25" stroke="#18181B" stroke-width="1.2" stroke-linecap="round" stroke-linejoin="round"/>
</svg>
