<svg width="20" height="17" viewBox="0 0 20 17" fill="none" xmlns="http://www.w3.org/2000/svg">
<path d="M8.25482 1.76669C8.69899 0.244571 11.301 0.244571 11.7452 1.76669C12.0321 2.74997 13.3862 3.21659 14.4248 2.6901C16.0326 1.87509 17.8725 3.40579 16.8929 4.74339C16.26 5.60746 16.8209 6.73398 18.0028 6.97269C19.8324 7.34221 19.8324 9.50695 18.0028 9.87647C16.8209 10.1152 16.26 11.2417 16.8929 12.1058C17.8725 13.4434 16.0326 14.9741 14.4248 14.1591C13.3862 13.6326 12.0321 14.0992 11.7452 15.0825C11.301 16.6046 8.69899 16.6046 8.25482 15.0825C7.96789 14.0992 6.61381 13.6326 5.57519 14.1591C3.9674 14.9741 2.12749 13.4434 3.10714 12.1058C3.73998 11.2417 3.17909 10.1152 1.9972 9.87647C0.167602 9.50695 0.167601 7.34221 1.9972 6.97269C3.17909 6.73398 3.73997 5.60746 3.10714 4.74339C2.12749 3.40579 3.9674 1.87509 5.57519 2.6901C6.61381 3.21659 7.96789 2.74997 8.25482 1.76669Z" stroke="#3F3F46" stroke-width="1.2" stroke-linecap="round" stroke-linejoin="round"/>
<path d="M13.125 8.42458C13.125 9.86043 11.7259 11.0244 10 11.0244C8.27411 11.0244 6.875 9.86043 6.875 8.42458C6.875 6.98874 8.27411 5.82475 10 5.82475C11.7259 5.82475 13.125 6.98874 13.125 8.42458Z" stroke="#3F3F46" stroke-width="1.2" stroke-linecap="round" stroke-linejoin="round"/>
</svg>
