<svg width="15" height="16" viewBox="0 0 15 16" fill="none" xmlns="http://www.w3.org/2000/svg">
<path d="M3.67121 3.6095C3.67055 4.32415 3.89447 5.02294 4.31464 5.61745C4.73481 6.21197 5.33236 6.67551 6.03168 6.94943C6.73101 7.22334 7.5007 7.29534 8.24339 7.1563C8.98608 7.01726 9.66837 6.67344 10.204 6.16832C10.7396 5.66321 11.1045 5.0195 11.2525 4.31863C11.4004 3.61776 11.3248 2.8912 11.0352 2.23089C10.7456 1.57058 10.255 1.00617 9.62553 0.609069C8.99603 0.211965 8.25589 2.74469e-07 7.49874 0C6.48458 0.00117097 5.51226 0.381733 4.79483 1.0583C4.07739 1.73487 3.67334 2.65227 3.67121 3.6095ZM9.66038 3.6095C9.66051 4.01291 9.53391 4.4073 9.29657 4.7428C9.05923 5.07829 8.7218 5.33982 8.32699 5.49431C7.93217 5.64881 7.49769 5.68932 7.07848 5.61075C6.65926 5.53217 6.27415 5.33802 5.97184 5.05285C5.66952 4.76768 5.46358 4.40431 5.38007 4.00868C5.29655 3.61304 5.33921 3.20291 5.50265 2.83016C5.66608 2.45741 5.94296 2.13878 6.29826 1.91455C6.65356 1.69032 7.07133 1.57058 7.49874 1.57046C8.07159 1.57112 8.62081 1.78612 9.026 2.16834C9.4312 2.55055 9.65932 3.0688 9.66038 3.6095Z" fill="#3F3F46"/>
<path d="M10.4936 8.48195H4.50445C3.31012 8.48295 2.16501 8.93122 1.3205 9.72833C0.475978 10.5254 0.00106589 11.6063 0 12.7336V13.142C0.000709779 13.689 0.231205 14.2135 0.640951 14.6003C1.0507 14.9872 1.60625 15.2049 2.18581 15.2058H12.8143C13.3938 15.2049 13.9494 14.9872 14.3591 14.6003C14.7689 14.2135 14.9994 13.689 15.0001 13.142V12.7336C14.999 11.6059 14.5238 10.5248 13.6789 9.72766C12.8339 8.9305 11.6883 8.48245 10.4936 8.48195ZM13.3316 13.1414C13.3316 13.2714 13.2769 13.3961 13.1795 13.4882C13.0821 13.5802 12.95 13.632 12.8123 13.6321H2.18581C2.04802 13.632 1.91594 13.5802 1.81858 13.4882C1.72121 13.3961 1.66653 13.2714 1.66653 13.1414V12.7329C1.66742 12.0228 1.96669 11.3419 2.49872 10.8398C3.03074 10.3376 3.75206 10.0551 4.50445 10.0543H10.4936C11.246 10.0551 11.9673 10.3376 12.4994 10.8398C13.0314 11.3419 13.3307 12.0228 13.3316 12.7329V13.1414Z" fill="#3F3F46"/>
</svg>
